<svg xmlns="http://www.w3.org/2000/svg" viewBox="0 0 64 64">
  <title>Kestrel</title>
  <rect width="64" height="64" rx="16" fill="#0c1018"/>
  <rect x="0.5" y="0.5" width="63" height="63" rx="15.5" fill="none" stroke="#eef2ff" stroke-opacity="0.1"/>
  <g transform="translate(11.2 9) scale(1.3)">
    <path d="M16 4C17.6 4 18.6 5.2 18.6 6.8C18.6 7.4 18.5 8 18.3 8.5C22.5 5.4 26.8 4.2 30.8 4.8C27.4 7.6 23.6 10.8 20.2 14.6L18.6 16.6C19.6 19 20.3 21.6 20.4 24.2C18.9 25 17.4 25.4 16 25.4C14.6 25.4 13.1 25 11.6 24.2C11.7 21.6 12.4 19 13.4 16.6L11.8 14.6C8.4 10.8 4.6 7.6 1.2 4.8C5.2 4.2 9.5 5.4 13.7 8.5C13.5 8 13.4 7.4 13.4 6.8C13.4 5.2 14.4 4 16 4Z" fill="#eef2ff"/>
    <circle cx="16" cy="29.2" r="2.1" fill="#ff8a3d"/>
  </g>
</svg>
